<svg width="161" height="52" viewBox="0 0 161 52" fill="none" xmlns="http://www.w3.org/2000/svg">
<path d="M72.296 34.168C71.176 34.168 70.168 33.976 69.272 33.592C68.376 33.192 67.672 32.632 67.16 31.912C66.648 31.192 66.392 30.352 66.392 29.392H69.32C69.384 30.112 69.664 30.704 70.16 31.168C70.672 31.632 71.384 31.864 72.296 31.864C73.24 31.864 73.976 31.64 74.504 31.192C75.032 30.728 75.296 30.136 75.296 29.416C75.296 28.856 75.128 28.4 74.792 28.048C74.472 27.696 74.064 27.424 73.568 27.232C73.088 27.04 72.416 26.832 71.552 26.608C70.464 26.32 69.576 26.032 68.888 25.744C68.216 25.44 67.64 24.976 67.16 24.352C66.68 23.728 66.44 22.896 66.44 21.856C66.44 20.896 66.68 20.056 67.16 19.336C67.64 18.616 68.312 18.064 69.176 17.68C70.04 17.296 71.04 17.104 72.176 17.104C73.792 17.104 75.112 17.512 76.136 18.328C77.176 19.128 77.752 20.232 77.864 21.64H74.84C74.792 21.032 74.504 20.512 73.976 20.08C73.448 19.648 72.752 19.432 71.888 19.432C71.104 19.432 70.464 19.632 69.968 20.032C69.472 20.432 69.224 21.008 69.224 21.76C69.224 22.272 69.376 22.696 69.68 23.032C70 23.352 70.4 23.608 70.88 23.8C71.36 23.992 72.016 24.2 72.848 24.424C73.952 24.728 74.848 25.032 75.536 25.336C76.24 25.64 76.832 26.112 77.312 26.752C77.808 27.376 78.056 28.216 78.056 29.272C78.056 30.12 77.824 30.92 77.36 31.672C76.912 32.424 76.248 33.032 75.368 33.496C74.504 33.944 73.48 34.168 72.296 34.168ZM84.4764 23.008V30.328C84.4764 30.824 84.5884 31.184 84.8124 31.408C85.0524 31.616 85.4524 31.72 86.0124 31.72H87.6924V34H85.5324C84.3004 34 83.3564 33.712 82.7004 33.136C82.0444 32.56 81.7164 31.624 81.7164 30.328V23.008H80.1564V20.776H81.7164V17.488H84.4764V20.776H87.6924V23.008H84.4764ZM95.9501 34.216C94.7021 34.216 93.5741 33.936 92.5661 33.376C91.5581 32.8 90.7661 32 90.1901 30.976C89.6141 29.936 89.3261 28.736 89.3261 27.376C89.3261 26.032 89.6221 24.84 90.2141 23.8C90.8061 22.76 91.6141 21.96 92.6381 21.4C93.6621 20.84 94.8061 20.56 96.0701 20.56C97.3341 20.56 98.4781 20.84 99.5021 21.4C100.526 21.96 101.334 22.76 101.926 23.8C102.518 24.84 102.814 26.032 102.814 27.376C102.814 28.72 102.51 29.912 101.902 30.952C101.294 31.992 100.462 32.8 99.4061 33.376C98.3661 33.936 97.2141 34.216 95.9501 34.216ZM95.9501 31.84C96.6541 31.84 97.3101 31.672 97.9181 31.336C98.5421 31 99.0461 30.496 99.4301 29.824C99.8141 29.152 100.006 28.336 100.006 27.376C100.006 26.416 99.8221 25.608 99.4541 24.952C99.0861 24.28 98.5981 23.776 97.9901 23.44C97.3821 23.104 96.7261 22.936 96.0221 22.936C95.3181 22.936 94.6621 23.104 94.0541 23.44C93.4621 23.776 92.9901 24.28 92.6381 24.952C92.2861 25.608 92.1101 26.416 92.1101 27.376C92.1101 28.8 92.4701 29.904 93.1901 30.688C93.9261 31.456 94.8461 31.84 95.9501 31.84ZM108.255 22.696C108.655 22.024 109.183 21.504 109.839 21.136C110.511 20.752 111.303 20.56 112.215 20.56V23.392H111.519C110.447 23.392 109.631 23.664 109.071 24.208C108.527 24.752 108.255 25.696 108.255 27.04V34H105.519V20.776H108.255V22.696ZM113.818 27.328C113.818 26 114.09 24.824 114.634 23.8C115.194 22.776 115.946 21.984 116.89 21.424C117.85 20.848 118.906 20.56 120.058 20.56C121.098 20.56 122.002 20.768 122.77 21.184C123.554 21.584 124.178 22.088 124.642 22.696V20.776H127.402V34H124.642V32.032C124.178 32.656 123.546 33.176 122.746 33.592C121.946 34.008 121.034 34.216 120.01 34.216C118.874 34.216 117.834 33.928 116.89 33.352C115.946 32.76 115.194 31.944 114.634 30.904C114.09 29.848 113.818 28.656 113.818 27.328ZM124.642 27.376C124.642 26.464 124.45 25.672 124.066 25C123.698 24.328 123.21 23.816 122.602 23.464C121.994 23.112 121.338 22.936 120.634 22.936C119.93 22.936 119.274 23.112 118.666 23.464C118.058 23.8 117.562 24.304 117.178 24.976C116.81 25.632 116.626 26.416 116.626 27.328C116.626 28.24 116.81 29.04 117.178 29.728C117.562 30.416 118.058 30.944 118.666 31.312C119.29 31.664 119.946 31.84 120.634 31.84C121.338 31.84 121.994 31.664 122.602 31.312C123.21 30.96 123.698 30.448 124.066 29.776C124.45 29.088 124.642 28.288 124.642 27.376ZM136.323 20.56C137.347 20.56 138.251 20.768 139.035 21.184C139.835 21.584 140.459 22.088 140.907 22.696V20.776H143.667V34.216C143.667 35.432 143.411 36.512 142.899 37.456C142.387 38.416 141.643 39.168 140.667 39.712C139.707 40.256 138.555 40.528 137.211 40.528C135.419 40.528 133.931 40.104 132.747 39.256C131.563 38.424 130.891 37.288 130.731 35.848H133.443C133.651 36.536 134.091 37.088 134.763 37.504C135.451 37.936 136.267 38.152 137.211 38.152C138.315 38.152 139.203 37.816 139.875 37.144C140.563 36.472 140.907 35.496 140.907 34.216V32.008C140.443 32.632 139.811 33.16 139.011 33.592C138.227 34.008 137.331 34.216 136.323 34.216C135.171 34.216 134.115 33.928 133.155 33.352C132.211 32.76 131.459 31.944 130.899 30.904C130.355 29.848 130.083 28.656 130.083 27.328C130.083 26 130.355 24.824 130.899 23.8C131.459 22.776 132.211 21.984 133.155 21.424C134.115 20.848 135.171 20.56 136.323 20.56ZM140.907 27.376C140.907 26.464 140.715 25.672 140.331 25C139.963 24.328 139.475 23.816 138.867 23.464C138.259 23.112 137.603 22.936 136.899 22.936C136.195 22.936 135.539 23.112 134.931 23.464C134.323 23.8 133.827 24.304 133.443 24.976C133.075 25.632 132.891 26.416 132.891 27.328C132.891 28.24 133.075 29.04 133.443 29.728C133.827 30.416 134.323 30.944 134.931 31.312C135.555 31.664 136.211 31.84 136.899 31.84C137.603 31.84 138.259 31.664 138.867 31.312C139.475 30.96 139.963 30.448 140.331 29.776C140.715 29.088 140.907 28.288 140.907 27.376ZM159.381 27.064C159.381 27.56 159.349 28.008 159.285 28.408H149.181C149.261 29.464 149.653 30.312 150.357 30.952C151.061 31.592 151.925 31.912 152.949 31.912C154.421 31.912 155.461 31.296 156.069 30.064H159.021C158.621 31.28 157.893 32.28 156.837 33.064C155.797 33.832 154.501 34.216 152.949 34.216C151.685 34.216 150.549 33.936 149.541 33.376C148.549 32.8 147.765 32 147.189 30.976C146.629 29.936 146.349 28.736 146.349 27.376C146.349 26.016 146.621 24.824 147.165 23.8C147.725 22.76 148.501 21.96 149.493 21.4C150.501 20.84 151.653 20.56 152.949 20.56C154.197 20.56 155.309 20.832 156.285 21.376C157.261 21.92 158.021 22.688 158.565 23.68C159.109 24.656 159.381 25.784 159.381 27.064ZM156.525 26.2C156.509 25.192 156.149 24.384 155.445 23.776C154.741 23.168 153.869 22.864 152.829 22.864C151.885 22.864 151.077 23.168 150.405 23.776C149.733 24.368 149.333 25.176 149.205 26.2H156.525Z" fill="#1D3557"/>
<rect opacity="0.2" width="48" height="48" rx="24" fill="#1D3557"/>
<rect x="21" y="20" width="32" height="32" rx="16" fill="#1D3557"/>
</svg>
